{
  "accessors": [
    {
      "bufferView": 2,
      "componentType": 5126,
      "count": 41210,
      "max": [
        0.47080400586128235,
        0.16203799843788147,
        1.8027470111846924
      ],
      "min": [
        -0.4708090126514435,
        -0.15409700572490692,
        -0.0018599999602884054
      ],
      "type": "VEC3"
    },
    {
      "bufferView": 2,
      "byteOffset": 494520,
      "componentType": 5126,
      "count": 41210,
      "max": [
        0.9999745488166809,
        0.9999735355377197,
        0.9999374747276306
      ],
      "min": [
        -0.99997878074646,
        -0.9999979734420776,
        -0.9998773336410522
      ],
      "type": "VEC3"
    },
    {
      "bufferView": 3,
      "componentType": 5126,
      "count": 41210,
      "max": [
        1.0,
        0.9998288154602051,
        0.9999942183494568,
        1.0
      ],
      "min": [
        -0.9998540878295898,
        -0.9998300075531006,
        -0.9999945163726807,
        -1.0
      ],
      "type": "VEC4"
    },
    {
      "bufferView": 1,
      "componentType": 5126,
      "count": 41210,
      "max": [
        0.9948099851608276,
        0.9973999857902527
      ],
      "min": [
        0.005179999861866236,
        0.0009599999757483602
      ],
      "type": "VEC2"
    },
    {
      "bufferView": 0,
      "componentType": 5125,
      "count": 232296,
      "type": "SCALAR"
    }
  ],
  "asset": {
    "extras": {
      "author": "gome70 (https://sketchfab.com/gome70)",
      "license": "CC-BY-4.0 (http://creativecommons.org/licenses/by/4.0/)",
      "source": "https://sketchfab.com/3d-models/male-base-model-c613f570ecda43628018e78ef932b89d",
      "title": "Male Base Model"
    },
    "generator": "Sketchfab-12.63.0",
    "version": "2.0"
  },
  "bufferViews": [
    {
      "buffer": 0,
      "byteLength": 929184,
      "name": "floatBufferViews",
      "target": 34963
    },
    {
      "buffer": 0,
      "byteLength": 329680,
      "byteOffset": 929184,
      "byteStride": 8,
      "name": "floatBufferViews",
      "target": 34962
    },
    {
      "buffer": 0,
      "byteLength": 989040,
      "byteOffset": 1258864,
      "byteStride": 12,
      "name": "floatBufferViews",
      "target": 34962
    },
    {
      "buffer": 0,
      "byteLength": 659360,
      "byteOffset": 2247904,
      "byteStride": 16,
      "name": "floatBufferViews",
      "target": 34962
    }
  ],
  "buffers": [
    {
      "byteLength": 2907264,
      "uri": "scene.bin"
    }
  ],
  "images": [
    {
      "uri": "textures/material_0_normal.png"
    }
  ],
  "materials": [
    {
      "name": "material_0",
      "normalTexture": {
        "index": 0
      },
      "pbrMetallicRoughness": {
        "baseColorFactor": [
          0.4,
          0.4,
          0.4,
          1.0
        ],
        "metallicFactor": 0.0,
        "roughnessFactor": 0.6
      }
    }
  ],
  "meshes": [
    {
      "name": "Object_0",
      "primitives": [
        {
          "attributes": {
            "NORMAL": 1,
            "POSITION": 0,
            "TANGENT": 2,
            "TEXCOORD_0": 3
          },
          "indices": 4,
          "material": 0,
          "mode": 4
        }
      ]
    }
  ],
  "nodes": [
    {
      "children": [
        1
      ],
      "matrix": [
        1.0,
        0.0,
        0.0,
        0.0,
        0.0,
        2.220446049250313e-16,
        -1.0,
        0.0,
        0.0,
        1.0,
        2.220446049250313e-16,
        0.0,
        0.0,
        0.0,
        0.0,
        1.0
      ],
      "name": "Sketchfab_model"
    },
    {
      "children": [
        2
      ],
      "name": "MaleBaseModelWithEyes37k_LP.OBJ.cleaner.materialmerger.gles"
    },
    {
      "mesh": 0,
      "name": "Object_2"
    }
  ],
  "samplers": [
    {
      "magFilter": 9729,
      "minFilter": 9987,
      "wrapS": 10497,
      "wrapT": 10497
    }
  ],
  "scene": 0,
  "scenes": [
    {
      "name": "Sketchfab_Scene",
      "nodes": [
        0
      ]
    }
  ],
  "textures": [
    {
      "sampler": 0,
      "source": 0
    }
  ]
}
