{
  "accessors": [
    {
      "bufferView": 2,
      "componentType": 5126,
      "count": 21,
      "max": [
        0.6164000034332275,
        1.684499979019165,
        11.097100257873535
      ],
      "min": [
        -2.4400999546051025,
        0.9807000160217285,
        2.717900037765503
      ],
      "type": "VEC3"
    },
    {
      "bufferView": 2,
      "byteOffset": 252,
      "componentType": 5126,
      "count": 21,
      "max": [
        0.9688119292259216,
        0.9580318927764893,
        0.5023941397666931
      ],
      "min": [
        -0.981493353843689,
        -0.5268141031265259,
        -0.3565027713775635
      ],
      "type": "VEC3"
    },
    {
      "bufferView": 1,
      "componentType": 5126,
      "count": 21,
      "max": [
        0.45179998874664307,
        0.9121000170707703
      ],
      "min": [
        0.057100001722574234,
        0.6162999868392944
      ],
      "type": "VEC2"
    },
    {
      "bufferView": 0,
      "componentType": 5125,
      "count": 36,
      "type": "SCALAR"
    },
    {
      "bufferView": 2,
      "byteOffset": 504,
      "componentType": 5126,
      "count": 25441,
      "max": [
        4.309000015258789,
        4.367300033569336,
        19.67329978942871
      ],
      "min": [
        -4.1016998291015625,
        -3.806999921798706,
        0.08179999887943268
      ],
      "type": "VEC3"
    },
    {
      "bufferView": 2,
      "byteOffset": 305796,
      "componentType": 5126,
      "count": 25441,
      "max": [
        1.0,
        0.9997355341911316,
        0.9999727010726929
      ],
      "min": [
        -0.9999462366104126,
        -0.9999607801437378,
        -0.9997621178627014
      ],
      "type": "VEC3"
    },
    {
      "bufferView": 1,
      "byteOffset": 168,
      "componentType": 5126,
      "count": 25441,
      "max": [
        0.9904999732971191,
        0.9961000084877014
      ],
      "min": [
        0.0038999998942017555,
        0.0032999999821186066
      ],
      "type": "VEC2"
    },
    {
      "bufferView": 0,
      "byteOffset": 144,
      "componentType": 5125,
      "count": 142785,
      "type": "SCALAR"
    }
  ],
  "asset": {
    "extras": {
      "author": "pouriaoskuie11 (https://sketchfab.com/pouriaoskuie11)",
      "license": "CC-BY-4.0 (http://creativecommons.org/licenses/by/4.0/)",
      "source": "https://sketchfab.com/3d-models/female-statue-cf06370fa3df429f8f53a112dedc8764",
      "title": "female statue"
    },
    "generator": "Sketchfab-16.54.0",
    "version": "2.0"
  },
  "bufferViews": [
    {
      "buffer": 0,
      "byteLength": 571284,
      "name": "floatBufferViews",
      "target": 34963
    },
    {
      "buffer": 0,
      "byteLength": 203696,
      "byteOffset": 571284,
      "byteStride": 8,
      "name": "floatBufferViews",
      "target": 34962
    },
    {
      "buffer": 0,
      "byteLength": 611088,
      "byteOffset": 774980,
      "byteStride": 12,
      "name": "floatBufferViews",
      "target": 34962
    }
  ],
  "buffers": [
    {
      "byteLength": 1386068,
      "uri": "scene.bin"
    }
  ],
  "extensionsRequired": [
    "KHR_materials_pbrSpecularGlossiness"
  ],
  "extensionsUsed": [
    "KHR_materials_pbrSpecularGlossiness"
  ],
  "images": [
    {
      "uri": "textures/LOWPOLY_FROM_ZBRUSH_default_diffuse.png"
    }
  ],
  "materials": [
    {
      "doubleSided": true,
      "extensions": {
        "KHR_materials_pbrSpecularGlossiness": {
          "diffuseFactor": [
            1.0,
            1.0,
            1.0,
            1.0
          ],
          "diffuseTexture": {
            "index": 0
          },
          "glossinessFactor": 0.0,
          "specularFactor": [
            0.0,
            0.0,
            0.0
          ]
        }
      },
      "name": "LOWPOLY_FROM_ZBRUSH_default"
    }
  ],
  "meshes": [
    {
      "name": "Object_0",
      "primitives": [
        {
          "attributes": {
            "NORMAL": 1,
            "POSITION": 0,
            "TEXCOORD_0": 2
          },
          "indices": 3,
          "material": 0,
          "mode": 4
        }
      ]
    },
    {
      "name": "Object_1",
      "primitives": [
        {
          "attributes": {
            "NORMAL": 5,
            "POSITION": 4,
            "TEXCOORD_0": 6
          },
          "indices": 7,
          "material": 0,
          "mode": 4
        }
      ]
    }
  ],
  "nodes": [
    {
      "children": [
        1
      ],
      "matrix": [
        0.01809770241379738,
        2.9103324675184267e-18,
        9.693354344259308e-34,
        0.0,
        -1.4490534288242497e-34,
        6.928829650040851e-18,
        -0.01809770241379738,
        0.0,
        -2.9103324675184267e-18,
        0.01809770241379738,
        6.928829650040851e-18,
        0.0,
        0.0,
        0.0,
        0.0,
        1.0
      ],
      "name": "Sketchfab_model"
    },
    {
      "children": [
        2,
        3
      ],
      "name": "LOWPOLY FROM ZBRUSH.obj.cleaner.materialmerger.gles"
    },
    {
      "mesh": 0,
      "name": "Object_2"
    },
    {
      "mesh": 1,
      "name": "Object_3"
    }
  ],
  "samplers": [
    {
      "magFilter": 9729,
      "minFilter": 9987,
      "wrapS": 10497,
      "wrapT": 10497
    }
  ],
  "scene": 0,
  "scenes": [
    {
      "name": "Sketchfab_Scene",
      "nodes": [
        0
      ]
    }
  ],
  "textures": [
    {
      "sampler": 0,
      "source": 0
    }
  ]
}
